<svg id="Capa_1" enable-background="new 0 0 512 512" height="512" viewBox="0 0 512 512" width="512" xmlns="http://www.w3.org/2000/svg"><g><path d="m433.855 80.781h-96.947v-42.81c0-5.103 4.137-9.239 9.239-9.239h78.469c5.103 0 9.239 4.137 9.239 9.239z" fill="#ffd064"/><path d="m424.616 28.732h-21.112c5.103 0 9.239 4.136 9.239 9.239v42.81h21.112v-42.81c0-5.103-4.137-9.239-9.239-9.239z" fill="#ffc250"/><circle cx="385.381" cy="176.918" fill="#f9f6f6" r="119.119"/><path d="m385.381 57.799c-4.241 0-8.429.226-12.556.658 59.885 6.274 106.563 56.914 106.563 118.461 0 61.546-46.678 112.187-106.563 118.461 4.127.432 8.315.658 12.556.658 65.788 0 119.119-53.331 119.119-119.119s-53.331-119.119-119.119-119.119z" fill="#dddaec"/><path d="m491.135 430.298h-421.996c-3.744 0-6.78-3.035-6.78-6.78v-190.974c0-5.948 4.822-10.769 10.769-10.769h309.155c5.432 0 10.614 2.284 14.278 6.294l102.892 112.592c3.246 3.552 5.046 8.191 5.046 13.003v63.269c.001 7.381-5.983 13.365-13.364 13.365z" fill="#80b4fb"/><path d="m499.453 340.661-102.892-112.592c-3.664-4.01-8.846-6.294-14.278-6.294h-22.014c5.432 0 10.614 2.284 14.278 6.294l102.892 112.592c3.246 3.552 5.046 8.191 5.046 13.003v63.269c0 7.381-5.984 13.365-13.365 13.365h22.014c7.381 0 13.365-5.984 13.365-13.365v-63.269c.001-4.813-1.799-9.451-5.046-13.003z" fill="#61a2f9"/><path d="m396.561 228.069c-3.664-4.01-8.846-6.294-14.278-6.294h-41.503v96.667c0 4.194 3.4 7.594 7.594 7.594h137.714z" fill="#e4f6ff"/><path d="m374.547 228.069 89.528 97.968h22.014l-89.528-97.968c-3.664-4.01-8.846-6.294-14.278-6.294h-22.014c5.432 0 10.614 2.284 14.278 6.294z" fill="#d3effb"/><circle cx="418.275" cy="433.143" fill="#26457d" r="50.125"/><path d="m418.275 383.018c-2.839 0-5.618.248-8.328.702 23.717 3.968 41.797 24.579 41.797 49.423 0 24.845-18.079 45.455-41.797 49.423 2.71.453 5.489.702 8.328.702 27.683 0 50.125-22.442 50.125-50.125s-22.442-50.125-50.125-50.125z" fill="#21386b"/><circle cx="418.275" cy="433.143" fill="#f9f6f6" r="16.656"/><path d="m418.275 416.487c-2.425 0-4.722.53-6.801 1.462 5.806 2.603 9.856 8.421 9.856 15.195s-4.051 12.592-9.856 15.195c2.078.932 4.376 1.462 6.801 1.462 9.199 0 16.656-7.457 16.656-16.657s-7.457-16.657-16.656-16.657z" fill="#dddaec"/><circle cx="168.58" cy="433.143" fill="#26457d" r="50.125"/><path d="m168.581 383.018c-2.839 0-5.618.248-8.328.702 23.717 3.968 41.797 24.579 41.797 49.423 0 24.845-18.079 45.455-41.797 49.423 2.71.453 5.489.702 8.328.702 27.683 0 50.125-22.442 50.125-50.125s-22.442-50.125-50.125-50.125z" fill="#21386b"/><circle cx="168.58" cy="433.143" fill="#f9f6f6" r="16.656"/><path d="m168.581 416.487c-2.425 0-4.722.53-6.801 1.462 5.806 2.603 9.856 8.421 9.856 15.195s-4.051 12.592-9.856 15.195c2.078.932 4.376 1.462 6.801 1.462 9.199 0 16.656-7.457 16.656-16.657s-7.457-16.657-16.656-16.657z" fill="#dddaec"/><g><g><g><path d="m153.282 342.77-5.838-5.998 35.571-34.623-35.571-34.624 5.838-5.998c8.074-8.295 21.343-8.474 29.638-.4l31.174 30.343c1.616 1.573 2.932 3.454 3.704 5.573 2.05 5.631.522 11.673-3.529 15.615l-31.349 30.513c-8.294 8.073-21.564 7.894-29.638-.401z" fill="#f9f6f6"/></g></g></g><g><path d="m385.381 102.82c4.143 0 7.5-3.357 7.5-7.5v-10.082c0-4.143-3.357-7.5-7.5-7.5s-7.5 3.357-7.5 7.5v10.082c0 4.142 3.358 7.5 7.5 7.5z"/><path d="m466.98 169.418c-4.143 0-7.5 3.357-7.5 7.5s3.357 7.5 7.5 7.5h10.081c4.143 0 7.5-3.357 7.5-7.5s-3.357-7.5-7.5-7.5z"/><path d="m293.701 169.418c-4.143 0-7.5 3.357-7.5 7.5s3.357 7.5 7.5 7.5h10.082c4.143 0 7.5-3.357 7.5-7.5s-3.357-7.5-7.5-7.5z"/><path d="m418.275 408.987c-13.32 0-24.157 10.837-24.157 24.156s10.837 24.156 24.157 24.156c13.319 0 24.156-10.837 24.156-24.156s-10.837-24.156-24.156-24.156zm0 33.312c-5.05 0-9.157-4.107-9.157-9.156s4.107-9.156 9.157-9.156c5.049 0 9.156 4.107 9.156 9.156s-4.107 9.156-9.156 9.156z"/><path d="m144.424 433.143c0 13.319 10.837 24.156 24.157 24.156s24.156-10.837 24.156-24.156-10.836-24.156-24.156-24.156-24.157 10.836-24.157 24.156zm33.313 0c0 5.049-4.107 9.156-9.156 9.156s-9.157-4.107-9.157-9.156 4.108-9.156 9.157-9.156 9.156 4.107 9.156 9.156z"/><path d="m219.501 318.031c8.467-8.241 9.443-22.576-.175-31.936l-31.174-30.345c-11.246-10.942-29.299-10.7-40.244.544l-5.838 5.998c-2.889 2.969-2.825 7.717.143 10.605l30.05 29.25-30.05 29.249c-1.425 1.387-2.241 3.284-2.268 5.272-.027 1.989.738 3.907 2.125 5.333l5.838 5.998c10.981 11.281 28.995 11.495 40.244.543zm-60.844 19.507-.607-.623 30.197-29.393c1.45-1.411 2.269-3.35 2.269-5.374s-.818-3.963-2.269-5.374l-30.197-29.394.607-.623c5.178-5.319 13.715-5.434 19.033-.258l31.174 30.345c3.327 3.238 2.882 7.802.175 10.438l-31.349 30.513c-5.293 5.151-13.813 5.106-19.033-.257z"/><path d="m377.881 176.918c0 4.143 3.357 7.5 7.5 7.5h25.506c4.143 0 7.5-3.357 7.5-7.5s-3.357-7.5-7.5-7.5h-18.006v-46.706c0-4.143-3.357-7.5-7.5-7.5s-7.5 3.357-7.5 7.5z"/><path d="m128.121 112.82h129.141c4.143 0 7.5-3.357 7.5-7.5s-3.357-7.5-7.5-7.5h-129.141c-4.142 0-7.5 3.357-7.5 7.5s3.358 7.5 7.5 7.5z"/><path d="m96.817 151.567h134.052c4.142 0 7.5-3.357 7.5-7.5s-3.358-7.5-7.5-7.5h-134.052c-4.142 0-7.5 3.357-7.5 7.5s3.358 7.5 7.5 7.5z"/><path d="m173.508 171.121c-4.142 0-7.5 3.357-7.5 7.5s3.358 7.5 7.5 7.5h66.705c4.142 0 7.5-3.357 7.5-7.5s-3.358-7.5-7.5-7.5z"/><path d="m110.275 171.121c-4.142 0-7.5 3.357-7.5 7.5s3.358 7.5 7.5 7.5h33.292c4.142 0 7.5-3.357 7.5-7.5s-3.358-7.5-7.5-7.5z"/><path d="m7.5 289.406h27.43c4.142 0 7.5-3.357 7.5-7.5s-3.358-7.5-7.5-7.5h-27.43c-4.142 0-7.5 3.357-7.5 7.5s3.358 7.5 7.5 7.5z"/><path d="m27.5 355.47h-20c-4.142 0-7.5 3.357-7.5 7.5s3.358 7.5 7.5 7.5h20c4.142 0 7.5-3.357 7.5-7.5s-3.358-7.5-7.5-7.5z"/><path d="m115.733 291.959h-26.748c-4.142 0-7.5 3.357-7.5 7.5s3.358 7.5 7.5 7.5h26.748c4.142 0 7.5-3.357 7.5-7.5s-3.358-7.5-7.5-7.5z"/><path d="m456.009 282.004c34.75-23.411 55.991-62.863 55.991-105.087 0-20.068-4.565-39.271-13.57-57.072-1.869-3.696-6.382-5.177-10.077-3.308-3.696 1.869-5.178 6.382-3.308 10.077 7.932 15.684 11.955 32.609 11.955 50.303 0 37.974-19.494 73.403-51.238 93.873l-43.665-47.781c-5.072-5.552-12.295-8.735-19.814-8.735h-102.106c-4.256-11.968-6.415-24.511-6.415-37.357 0-61.547 50.072-111.618 111.619-111.618 31.926 0 62.391 13.724 83.583 37.653 2.744 3.1 7.484 3.39 10.587.642 3.101-2.746 3.389-7.486.642-10.587-11.018-12.442-24.252-22.442-38.838-29.635v-25.401c0-9.23-7.509-16.739-16.739-16.739h-78.469c-9.23 0-16.739 7.509-16.739 16.739v25.394c-41.819 20.698-70.646 63.818-70.646 113.552 0 12.784 1.892 25.304 5.617 37.357h-191.251c-9.567 0-17.426 7.396-18.193 16.77h-27.435c-4.142 0-7.5 3.357-7.5 7.5s3.358 7.5 7.5 7.5h27.359v72.492h-47.359c-4.142 0-7.5 3.357-7.5 7.5s3.358 7.5 7.5 7.5h47.359v21.937c-4.109.038-7.43 3.378-7.43 7.496s3.32 7.458 7.43 7.496v53.052c0 7.874 6.406 14.279 14.279 14.279h20.179v5.221h-23.4c-4.142 0-7.5 3.357-7.5 7.5s3.358 7.5 7.5 7.5h30.9c4.142 0 7.5-3.357 7.5-7.5v-12.721h6.843c2.38 29.604 27.215 52.97 57.421 52.97 9.968 0 19.808-2.601 28.455-7.521 3.6-2.049 4.857-6.628 2.809-10.228-2.048-3.601-6.626-4.856-10.228-2.81-6.39 3.637-13.665 5.559-21.036 5.559-23.503 0-42.625-19.121-42.625-42.625s19.122-42.625 42.625-42.625 42.625 19.121 42.625 42.625c0 6.408-1.389 12.571-4.129 18.318-1.783 3.739-.196 8.215 3.542 9.997 3.74 1.782 8.215.196 9.998-3.542 3.039-6.374 4.828-13.125 5.383-20.118h134.854c2.38 29.604 27.215 52.97 57.421 52.97s55.04-23.366 57.421-52.97h15.439c11.505 0 20.865-9.36 20.865-20.865v-63.27c0-6.701-2.489-13.116-7.01-18.062zm-111.601-244.033c0-.959.78-1.739 1.739-1.739h78.469c.959 0 1.739.78 1.739 1.739v19.166c-13.061-4.473-26.89-6.837-40.974-6.837-14.333 0-28.116 2.398-40.974 6.807v-19.136zm46.617 195.158 78.05 85.407h-55.947c-4.143 0-7.5 3.357-7.5 7.5s3.357 7.5 7.5 7.5h69.655l11.135 12.185c4.54 4.968 2.632 10.359 3.082 16.08h-5.782c-4.143 0-7.5 3.357-7.5 7.5s3.357 7.5 7.5 7.5h5.782v11.098h-43.101c-9.812-7.743-22.183-12.381-35.623-12.381s-25.811 4.638-35.623 12.381h-81.717v-158.624h32.347v89.167c0 8.323 6.771 15.095 15.094 15.095h34.767c4.143 0 7.5-3.357 7.5-7.5s-3.357-7.5-7.5-7.5h-34.767c-.052 0-.094-.043-.094-.095v-89.167h34.002c3.315 0 6.502 1.405 8.74 3.854zm-29.427 189.669h-60.664v-19.899h68.318c-3.712 5.994-6.346 12.717-7.654 19.899zm-143.995-19.899h68.331v19.899h-60.677c-1.308-7.182-3.942-13.905-7.654-19.899zm-147.744 0h49.698c-3.712 5.994-6.346 12.717-7.654 19.899h-42.044zm63.098-15h-63.098v-17.429h32.5c4.142 0 7.5-3.357 7.5-7.5s-3.358-7.5-7.5-7.5h-32.5v-21.934h32.5c4.142 0 7.5-3.357 7.5-7.5s-3.358-7.5-7.5-7.5h-32.5v-85.992c0-1.803 1.466-3.27 3.269-3.27h212.806v158.624h-81.73c-9.812-7.743-22.183-12.381-35.623-12.381s-25.811 4.639-35.624 12.382zm285.318 87.869c-23.504 0-42.625-19.121-42.625-42.625s19.121-42.625 42.625-42.625 42.625 19.121 42.625 42.625-19.121 42.625-42.625 42.625zm72.859-52.97h-16.183c-1.308-7.182-3.942-13.905-7.654-19.899h29.703v14.034c0 3.234-2.631 5.865-5.866 5.865z"/></g></g></svg>