<svg id="_x33_0" enable-background="new 0 0 64 64" height="512" viewBox="0 0 64 64" width="512" xmlns="http://www.w3.org/2000/svg"><g><g><g><path d="m44 55v7h-24v-7l-5.79-.53c-.38-.03-.76-.1-1.13-.18l.92-8.29h14c0 1.1.45 2.1 1.17 2.83.73.72 1.73 1.17 2.83 1.17s2.1-.45 2.83-1.17c.72-.73 1.17-1.73 1.17-2.83h14l.92 8.29c-.37.08-.75.15-1.13.18z" fill="#4fc1e9"/></g><g><path d="m9 38 5 8-.92 8.29c-2.66-.63-4.85-2.61-5.73-5.25l-3.35-10.04c-1.28-1.28-2-3.02-2-4.83v-1.17c0-1.1.45-2.1 1.17-2.83.73-.72 1.73-1.17 2.83-1.17s2.1.45 2.83 1.17c.72.73 1.17 1.73 1.17 2.83 0 1.32-.21 2.64-.63 3.9z" fill="#f0d0b4"/></g><g><path d="m62 33v1.17c0 1.81-.72 3.55-2 4.83l-3.35 10.04c-.88 2.64-3.07 4.62-5.73 5.25l-.92-8.29 5-8-.37-1.1c-.42-1.26-.63-2.58-.63-3.9 0-1.1.45-2.1 1.17-2.83.73-.72 1.73-1.17 2.83-1.17s2.1.45 2.83 1.17c.72.73 1.17 1.73 1.17 2.83z" fill="#f0d0b4"/></g><g><path d="m42.06 31.82c.58.55.94 1.32.94 2.18 0 .83-.34 1.58-.88 2.12s-1.29.88-2.12.88h-1.29c.19-.63.29-1.3.29-2v-4h1c.8 0 1.53.32 2.06.82z" fill="#f0d0b4"/></g><g><path d="m35.06 41.3.94 4.7c0 1.1-.45 2.1-1.17 2.83-.73.72-1.73 1.17-2.83 1.17s-2.1-.45-2.83-1.17c-.72-.73-1.17-1.73-1.17-2.83l.94-4.7c.92.45 1.96.7 3.06.7s2.14-.25 3.06-.7z" fill="#f0d0b4"/></g><g><path d="m39 31v4c0 .7-.1 1.37-.29 2-.33 1.13-.95 2.14-1.76 2.95l-1.89 1.35c-.92.45-1.96.7-3.06.7s-2.14-.25-3.06-.7c-1.75-.85-3.09-2.41-3.65-4.3-.19-.63-.29-1.3-.29-2v-4s4.04-1 6.05-3.99c.09.49.34.93.67 1.27.45.44 1.07.72 1.75.72h2.53c.83 0 1.58-.34 2.12-.88.56.63.88 1.45.88 2.29z" fill="#f0d0b4"/></g><g><path d="m25.29 37h-1.29c-.83 0-1.58-.34-2.12-.88s-.88-1.29-.88-2.12c0-.86.36-1.63.94-2.18.53-.5 1.26-.82 2.06-.82h1v4c0 .7.1 1.37.29 2z" fill="#f0d0b4"/></g><g><path d="m38.12 28.12c-.54.54-1.29.88-2.12.88h-2.53c-.68 0-1.3-.28-1.75-.72-.33-.34-.58-.78-.67-1.27-2.01 2.99-6.05 3.99-6.05 3.99h-1c-.8 0-1.53.32-2.06.82l-.54-1.63c-.27-.79-.4-1.61-.4-2.45 0-2.14.87-4.07 2.27-5.47s3.33-2.27 5.47-2.27h6.52c4.27 0 7.74 3.47 7.74 7.74 0 .84-.13 1.66-.4 2.45l-.54 1.63c-.53-.5-1.26-.82-2.06-.82h-1v-.59c0-.84-.32-1.66-.88-2.29z" fill="#656d78"/></g><g><path d="m17 25v2c0 1.1-.9 2-2 2h-2v-2c0-1.1.9-2 2-2z" fill="#a0d468"/></g><g><path d="m62 14v2h-2c-1.1 0-2-.9-2-2v-2h2c1.1 0 2 .9 2 2z" fill="#a0d468"/></g><g><path d="m57 2v2.59c0 2.52-1.88 4.64-4.38 4.96l-3.62.45v-2.1c0-2.29 1.56-4.29 3.79-4.85z" fill="#b4dd7f"/></g><g><path d="m13 17.15v3.85l-4.43-.81c-3.81-.69-6.57-4-6.57-7.87v-5.32l6.31 2.87c2.86 1.3 4.69 4.14 4.69 7.28z" fill="#b4dd7f"/></g></g><g><path d="m35.789 36.658.105-.211-1.789-.895-.105.212c-.381.762-1.147 1.236-2 1.236s-1.619-.474-2-1.236l-.105-.211-1.789.895.105.211c.722 1.444 2.174 2.341 3.789 2.341s3.067-.897 3.789-2.342z"/><path d="m58 28c-2.757 0-5 2.244-5 5.001 0 1.435.23 2.852.684 4.211l.219.657-4.457 7.131h-12.642l-.625-3.191c1.444-.89 2.587-2.22 3.232-3.809h.589c2.206 0 4-1.794 4-4 0-.901-.31-1.724-.815-2.393l.366-1.098c.298-.894.449-1.824.449-2.765 0-4.822-3.922-8.744-8.744-8.744h-6.513c-4.821 0-8.743 3.922-8.743 8.744 0 .941.151 1.871.449 2.765l.366 1.098c-.505.669-.815 1.492-.815 2.393 0 2.206 1.794 4 4 4h.589c.645 1.588 1.786 2.917 3.23 3.807l-.639 3.193h-12.626l-4.457-7.131.219-.656c.454-1.36.684-2.777.684-4.213 0-2.757-2.243-5-5-5s-5 2.243-5 5v1.171c0 2.01.752 3.904 2.124 5.361l3.273 9.82c1.131 3.392 4.163 5.793 7.724 6.117l4.879.444v7.087h26v-7.087l4.88-.444c3.561-.324 6.593-2.725 7.724-6.117l3.273-9.82c1.371-1.457 2.123-3.351 2.123-5.361v-1.171c0-2.757-2.243-5-5-5zm-18 8h-.069c.041-.328.069-.661.069-1v-3c1.103 0 2 .897 2 2s-.897 2-2 2zm-11.256-15h6.513c3.718 0 6.743 3.025 6.743 6.744 0 .726-.117 1.443-.346 2.132l-.142.426c-.467-.192-.977-.302-1.512-.302h-.038c-.062-.659-.256-1.295-.595-1.858.396-.621.633-1.353.633-2.142h-2c0 1.103-.897 2-2 2h-2.528c-.811 0-1.472-.661-1.472-1.472 0-.562.312-1.066.814-1.317l.633-.316-.895-1.789-.633.317c-1.183.591-1.919 1.781-1.919 3.105 0 .062.015.12.018.182-1.642 2.195-4.58 3.127-5.153 3.291h-.865c-.535 0-1.045.11-1.512.301l-.142-.426c-.229-.689-.346-1.407-.346-2.132 0-3.719 3.025-6.744 6.744-6.744zm-4.744 15c-1.103 0-2-.897-2-2s.897-2 2-2v3c0 .339.028.672.069 1zm2-1v-3.26c1.113-.382 3.214-1.284 4.855-2.956.637.738 1.568 1.216 2.617 1.216h2.528c.664 0 1.281-.178 1.833-.466.109.278.167.576.167.88v4.586c0 3.309-2.691 6-6 6s-6-2.691-6-6zm6 8c.804 0 1.579-.122 2.312-.344l.687 3.436c-.049 1.612-1.375 2.908-2.999 2.908s-2.95-1.296-2.999-2.908l.687-3.436c.733.222 1.508.344 2.312.344zm-23.706 5.72-3.42-10.26-.167-.167c-1.101-1.101-1.707-2.564-1.707-4.122v-1.171c0-1.654 1.346-3 3-3s3 1.346 3 3.001c0 1.219-.195 2.423-.581 3.58l-.517 1.55 5.066 8.105-.746 6.717c-1.827-.77-3.28-2.289-3.928-4.233zm37.138 5.145.516-1.549-1.897-.633-1.051 3.155v6.162h-22v-6.162l-1.051-3.154-1.897.633.516 1.549-4.267-.388c-.042-.004-.082-.016-.123-.02l.717-6.458h12.206c.465 2.279 2.484 4 4.899 4s4.434-1.721 4.899-4h12.206l.717 6.457c-.042.005-.081.017-.123.02zm15.568-19.694c0 1.557-.606 3.021-1.707 4.122l-.167.167-3.42 10.26c-.648 1.944-2.102 3.463-3.928 4.232l-.746-6.717 5.066-8.105-.517-1.551c-.386-1.155-.581-2.359-.581-3.579 0-1.654 1.346-3 3-3s3 1.346 3 3z"/><circle cx="29" cy="33" r="1"/><circle cx="35" cy="33" r="1"/><path d="m55 23c0 2.206-1.794 4-4 4s-4-1.794-4-4c0-1.103.897-2 2-2s2 .897 2 2h2c0-2.206-1.794-4-4-4s-4 1.794-4 4c0 3.309 2.691 6 6 6s6-2.691 6-6c0-5.514-4.486-10-10-10h-29v2h29c4.411 0 8 3.589 8 8z"/><path d="m45 6c0-2.757-2.243-5-5-5-1.654 0-3 1.346-3 3s1.346 3 3 3h1v-2h-1c-.551 0-1-.449-1-1s.449-1 1-1c1.654 0 3 1.346 3 3s-1.346 3-3 3h-22v2h22c2.757 0 5-2.243 5-5z"/><path d="m8.39 21.178 5.61 1.02v-5.047c0-3.521-2.071-6.737-5.276-8.193l-7.724-3.511v6.876c0 4.353 3.108 8.077 7.39 8.855zm-5.39-12.625 4.896 2.226c2.493 1.133 4.104 3.634 4.104 6.372v2.65l-3.252-.591c-3.331-.605-5.748-3.502-5.748-6.887z"/><path d="m58 4.586v-3.867l-5.456 1.364c-2.675.669-4.544 3.063-4.544 5.821v3.229l4.744-.593c2.996-.374 5.256-2.934 5.256-5.954zm-8 4.281v-.963c0-1.838 1.246-3.434 3.03-3.88l2.97-.743v1.305c0 2.013-1.506 3.72-3.504 3.969z"/><path d="m60 11h-3v3c0 1.654 1.346 3 3 3h3v-3c0-1.654-1.346-3-3-3zm1 4h-1c-.551 0-1-.449-1-1v-1h1c.551 0 1 .449 1 1z"/><path d="m12 27v3h3c1.654 0 3-1.346 3-3v-3h-3c-1.654 0-3 1.346-3 3zm2 0c0-.551.449-1 1-1h1v1c0 .551-.449 1-1 1h-1z"/></g></g></svg>