<?xml version="1.0" encoding="iso-8859-1"?>
<!-- Generator: Adobe Illustrator 19.0.0, SVG Export Plug-In . SVG Version: 6.00 Build 0)  -->
<svg version="1.1" id="Layer_1" xmlns="http://www.w3.org/2000/svg" xmlns:xlink="http://www.w3.org/1999/xlink" x="0px" y="0px"
	 viewBox="0 0 511.92 511.92" style="enable-background:new 0 0 511.92 511.92;" xml:space="preserve">
<polygon style="fill:#8AD5DD;" points="284.336,488.24 284.336,338.52 345.192,400.568 385.696,361.04 255.96,228.76 
	126.224,361.04 166.728,400.568 227.584,338.52 227.584,488.24 "/>
<g>
	<path style="fill:#DB2B42;" d="M407.016,130.224c0-6.152-5.52-8.592-12.392-8.592h-4.712v17.184
		c1.36,0.176,2.992,0.176,5.344,0.176C401.488,139,407.016,136.648,407.016,130.224z"/>
	<path style="fill:#DB2B42;" d="M405.56,104.264c0-4.616-3.52-7.056-9.768-7.056c-2.984,0-4.704,0.184-5.88,0.36v14.2h4.52
		C401.68,111.776,405.56,108.792,405.56,104.264z"/>
	<path style="fill:#DB2B42;" d="M24,214.24h463.92c13.2,0,24-10.8,24-24V47.68c0-13.2-10.8-24-24-24H24c-13.2,0-24,10.8-24,24
		v142.56C0,203.44,10.8,214.24,24,214.24z M428.648,87.624h37.632v11.304h-23.792v12.664h22.432v11.216h-22.432v14.472h25.056
		v11.312h-38.896V87.624z M376.256,88.44c3.616-0.72,10.944-1.264,17.824-1.264c8.416,0,13.568,0.816,18,3.44
		c4.248,2.264,7.328,6.424,7.328,11.936c0,5.432-3.168,10.496-10.04,13.024v0.176c6.96,1.904,12.12,7.152,12.12,15.016
		c0,5.52-2.528,9.856-6.328,12.936c-4.44,3.52-11.848,5.512-23.968,5.512c-6.792,0-11.848-0.456-14.928-0.904V88.44H376.256z
		 M352.736,87.624h13.84v60.968h-13.84V87.624z M301.336,88.44c4.432-0.72,11.04-1.264,18.368-1.264
		c9.04,0,15.376,1.352,19.72,4.792c3.616,2.896,5.6,7.152,5.6,12.752c0,7.784-5.512,13.12-10.76,15.016v0.272
		c4.248,1.72,6.6,5.792,8.144,11.392c1.896,6.872,3.8,14.832,4.968,17.184h-14.112c-0.992-1.72-2.44-6.696-4.248-14.2
		c-1.624-7.6-4.248-9.672-9.856-9.768h-4.168v23.968h-13.656L301.336,88.44L301.336,88.44z M280.24,86.632
		c7.152,0,12.568,1.448,15.016,2.712l-2.808,10.944c-2.808-1.176-6.696-2.264-11.576-2.264c-10.944,0-19.448,6.6-19.448,20.168
		c0,12.208,7.232,19.896,19.536,19.896c4.16,0,8.776-0.904,11.488-1.992l2.08,10.768c-2.528,1.264-8.224,2.624-15.648,2.624
		c-21.072,0-31.928-13.12-31.928-30.488C246.952,98.208,261.792,86.632,280.24,86.632z M218.344,122.992
		c-10.128-3.528-16.736-9.136-16.736-18c0-10.4,8.688-18.36,23.072-18.36c6.872,0,11.936,1.448,15.552,3.072l-3.072,11.128
		c-2.448-1.176-6.792-2.896-12.76-2.896c-5.968,0-8.864,2.712-8.864,5.88c0,3.888,3.44,5.608,11.312,8.592
		c10.76,3.976,15.832,9.584,15.832,18.176c0,10.216-7.872,18.904-24.6,18.904c-6.968,0-13.84-1.816-17.28-3.712l2.808-11.4
		c3.712,1.904,9.408,3.8,15.288,3.8c6.328,0,9.68-2.624,9.68-6.6C228.568,127.784,225.672,125.616,218.344,122.992z M150.76,88.44
		c3.616-0.72,10.944-1.264,17.824-1.264c8.416,0,13.568,0.816,18,3.44c4.248,2.264,7.328,6.424,7.328,11.936
		c0,5.432-3.168,10.496-10.04,13.024v0.176c6.96,1.904,12.12,7.152,12.12,15.016c0,5.52-2.528,9.856-6.328,12.936
		c-4.44,3.52-11.848,5.512-23.968,5.512c-6.792,0-11.848-0.456-14.928-0.904V88.44H150.76z M91.216,87.624h13.832v35.096
		c0,10.496,3.976,15.832,11.04,15.832c7.232,0,11.208-5.064,11.208-15.832V87.624h13.752v34.192
		c0,18.816-9.504,27.768-25.416,27.768c-15.384,0-24.424-8.496-24.424-27.952V87.624H91.216z M59.896,122.992
		c-10.12-3.528-16.736-9.136-16.736-18c0-10.4,8.688-18.36,23.072-18.36c6.872,0,11.936,1.448,15.552,3.072l-3.072,11.128
		c-2.448-1.176-6.792-2.896-12.76-2.896s-8.864,2.712-8.864,5.88c0,3.888,3.44,5.608,11.312,8.592
		c10.76,3.976,15.832,9.584,15.832,18.176c0,10.216-7.864,18.904-24.6,18.904c-6.968,0-13.84-1.816-17.28-3.712l2.808-11.4
		c3.712,1.904,9.408,3.8,15.288,3.8c6.328,0,9.68-2.624,9.68-6.6C70.128,127.784,67.224,125.616,59.896,122.992z"/>
	<path style="fill:#DB2B42;" d="M180.064,104.264c0-4.616-3.52-7.056-9.768-7.056c-2.984,0-4.704,0.184-5.88,0.36v14.2h4.52
		C176.176,111.776,180.064,108.792,180.064,104.264z"/>
	<path style="fill:#DB2B42;" d="M331.368,105.896c0-5.608-3.8-8.408-10.136-8.496c-3.344,0-5.24,0.272-6.24,0.448v16.824h5.432
		C327.296,114.672,331.368,111.232,331.368,105.896z"/>
	<path style="fill:#DB2B42;" d="M181.512,130.224c0-6.152-5.52-8.592-12.392-8.592h-4.712v17.184
		c1.36,0.176,2.992,0.176,5.344,0.176C175.992,139,181.512,136.648,181.512,130.224z"/>
</g>
<g>
	<path style="fill:#FFFFFF;" d="M60.448,138.192c-5.88,0-11.576-1.896-15.288-3.8l-2.808,11.4c3.44,1.896,10.312,3.712,17.28,3.712
		c16.736,0,24.6-8.688,24.6-18.904c0-8.592-5.072-14.2-15.832-18.176c-7.872-2.992-11.312-4.704-11.312-8.592
		c0-3.168,2.896-5.88,8.864-5.88s10.312,1.72,12.76,2.896l3.072-11.128c-3.616-1.632-8.68-3.072-15.552-3.072
		c-14.384,0-23.072,7.96-23.072,18.36c0,8.864,6.608,14.472,16.736,18c7.328,2.624,10.224,4.792,10.224,8.592
		C70.128,135.568,66.776,138.192,60.448,138.192z"/>
	<path style="fill:#FFFFFF;" d="M115.64,149.584c15.912,0,25.416-8.952,25.416-27.768V87.624h-13.752v35.096
		c0,10.768-3.976,15.832-11.208,15.832c-7.064,0-11.04-5.336-11.04-15.832V87.624H91.224v34.008
		C91.216,141.08,100.256,149.584,115.64,149.584z"/>
	<path style="fill:#FFFFFF;" d="M189.656,143.704c3.8-3.08,6.328-7.416,6.328-12.936c0-7.864-5.16-13.112-12.12-15.016v-0.176
		c6.872-2.528,10.04-7.6,10.04-13.024c0-5.512-3.08-9.672-7.328-11.936c-4.432-2.624-9.584-3.44-18-3.44
		c-6.872,0-14.2,0.544-17.824,1.264v59.88c3.08,0.456,8.144,0.904,14.928,0.904C177.8,149.224,185.216,147.232,189.656,143.704z
		 M164.416,97.576c1.176-0.176,2.896-0.36,5.88-0.36c6.24,0,9.768,2.44,9.768,7.056c0,4.52-3.88,7.504-11.128,7.504h-4.52V97.576z
		 M164.416,121.632h4.712c6.864,0,12.392,2.448,12.392,8.592c0,6.424-5.52,8.776-11.76,8.776c-2.352,0-3.984,0-5.344-0.176
		L164.416,121.632L164.416,121.632z"/>
	<path style="fill:#FFFFFF;" d="M218.888,138.192c-5.88,0-11.576-1.896-15.288-3.8l-2.808,11.4c3.44,1.896,10.312,3.712,17.28,3.712
		c16.728,0,24.6-8.688,24.6-18.904c0-8.592-5.072-14.2-15.832-18.176c-7.872-2.992-11.312-4.704-11.312-8.592
		c0-3.168,2.896-5.88,8.864-5.88c5.968,0,10.312,1.72,12.76,2.896l3.072-11.128c-3.616-1.632-8.68-3.072-15.552-3.072
		c-14.384,0-23.072,7.96-23.072,18.36c0,8.864,6.608,14.472,16.736,18c7.328,2.624,10.224,4.792,10.224,8.592
		C228.568,135.568,225.216,138.192,218.888,138.192z"/>
	<path style="fill:#FFFFFF;" d="M278.88,149.496c7.424,0,13.12-1.36,15.648-2.624l-2.08-10.768
		c-2.712,1.088-7.328,1.992-11.488,1.992c-12.304,0-19.536-7.688-19.536-19.896c0-13.568,8.496-20.168,19.448-20.168
		c4.88,0,8.776,1.088,11.576,2.264l2.808-10.944c-2.448-1.272-7.864-2.712-15.016-2.712c-18.456,0-33.288,11.576-33.288,32.384
		C246.952,136.376,257.808,149.496,278.88,149.496z"/>
	<path style="fill:#FFFFFF;" d="M314.992,124.624h4.168c5.608,0.088,8.232,2.168,9.856,9.768c1.816,7.504,3.256,12.488,4.248,14.2
		h14.112c-1.168-2.352-3.072-10.312-4.968-17.184c-1.536-5.608-3.888-9.672-8.144-11.392v-0.272
		c5.24-1.896,10.76-7.232,10.76-15.016c0-5.608-1.984-9.856-5.6-12.752c-4.344-3.44-10.68-4.792-19.72-4.792
		c-7.328,0-13.936,0.544-18.368,1.264V148.6h13.656L314.992,124.624L314.992,124.624z M314.992,97.848
		c1-0.176,2.896-0.448,6.24-0.448c6.336,0.088,10.136,2.896,10.136,8.496c0,5.336-4.072,8.776-10.944,8.776h-5.432L314.992,97.848
		L314.992,97.848z"/>
	<rect x="352.76" y="87.624" style="fill:#FFFFFF;" width="13.84" height="60.968"/>
	<path style="fill:#FFFFFF;" d="M415.152,143.704c3.8-3.08,6.328-7.416,6.328-12.936c0-7.864-5.16-13.112-12.12-15.016v-0.176
		c6.872-2.528,10.04-7.6,10.04-13.024c0-5.512-3.08-9.672-7.328-11.936c-4.432-2.624-9.584-3.44-18-3.44
		c-6.872,0-14.2,0.544-17.824,1.264v59.88c3.08,0.456,8.144,0.904,14.928,0.904C403.304,149.224,410.72,147.232,415.152,143.704z
		 M389.912,97.576c1.176-0.176,2.896-0.36,5.88-0.36c6.24,0,9.768,2.44,9.768,7.056c0,4.52-3.88,7.504-11.128,7.504h-4.52
		L389.912,97.576L389.912,97.576z M389.912,121.632h4.712c6.864,0,12.392,2.448,12.392,8.592c0,6.424-5.52,8.776-11.76,8.776
		c-2.352,0-3.984,0-5.344-0.176V121.632z"/>
	<polygon style="fill:#FFFFFF;" points="467.544,137.28 442.488,137.28 442.488,122.808 464.92,122.808 464.92,111.592 
		442.488,111.592 442.488,98.928 466.28,98.928 466.28,87.624 428.648,87.624 428.648,148.592 467.544,148.592 	"/>
</g>
<g>
</g>
<g>
</g>
<g>
</g>
<g>
</g>
<g>
</g>
<g>
</g>
<g>
</g>
<g>
</g>
<g>
</g>
<g>
</g>
<g>
</g>
<g>
</g>
<g>
</g>
<g>
</g>
<g>
</g>
</svg>
