<svg width="100" height="103" viewBox="0 0 100 103" fill="none" xmlns="http://www.w3.org/2000/svg">
<path d="M50.9316 95.2641C73.4882 95.2641 91.7739 76.8702 91.7739 54.1801C91.7739 31.4901 73.4882 13.0962 50.9316 13.0962C28.3751 13.0962 10.0894 31.4901 10.0894 54.1801C10.0894 76.8702 28.3751 95.2641 50.9316 95.2641Z" fill="#F56C00"/>
<path d="M76.723 50.0812C76.6877 50.0014 76.6403 49.9502 76.5949 49.8927C76.8486 49.4992 76.7036 48.8283 76.1956 48.6079C75.4228 48.2725 74.6161 48.0202 73.7978 47.8017C76.2638 45.7954 77.4697 41.2017 74.6064 38.9991C74.242 38.7183 71.9848 37.7816 72.023 37.3577C72.0945 36.5607 72.1138 35.4113 71.7392 34.6621C71.0452 33.2744 69.8165 33.1004 68.4917 33.0787C67.7715 29.3922 64.8801 26.8791 61.0908 28.8292C59.0839 29.8616 57.531 28.2617 55.4782 28.9659C53.8909 29.5102 53.526 31.5707 53.3404 33.0874C53.3443 32.4078 53.3496 31.7282 53.3467 31.0491C53.3447 30.66 53.105 30.3855 52.7734 30.2574C50.0894 29.2182 47.9565 29.1946 45.2783 30.2656C44.981 30.3841 44.6712 30.6712 44.7108 31.0491C44.9873 33.6592 45.2236 36.2745 45.4528 38.8909C43.4556 35.9647 40.4318 33.4296 37.3723 33.9676C37.902 30.3357 36.9827 23.5076 32.4446 23.2537C27.9969 23.0049 28.9075 29.3202 29.8631 32.4934C28.7282 32.3716 27.5566 32.6258 26.4159 32.6524C25.9036 32.6645 25.6218 33.2237 25.8504 33.6882C27.4411 36.9135 30.0675 38.3181 33.2218 37.3882C32.6843 38.7057 32.563 40.2355 32.7713 41.614C33.2223 44.5928 35.2446 46.9791 37.4709 48.75C34.5786 48.8834 31.6964 49.1396 28.9293 49.7317C28.8519 49.5882 28.6992 49.4925 28.4856 49.5408C24.3196 50.477 24.121 55.1562 25.035 58.7943C25.1408 59.2158 25.4845 59.4227 25.8707 59.4638C26.6687 59.5488 27.4667 59.6209 28.2637 59.6847C28.9563 60.53 29.5702 62.1734 29.967 62.969C30.853 64.7462 31.3571 66.724 31.9207 68.6313C32.8559 71.7986 33.6945 74.8596 34.9324 77.9177C34.9899 78.0598 35.0788 78.1536 35.1793 78.2266C35.2151 78.3372 35.2857 78.4407 35.4089 78.5166C43.7035 83.6424 56.9263 82.6216 65.9454 80.3397C66.0943 80.302 66.2156 80.2421 66.3224 80.1725C66.8377 80.3479 67.4999 80.1609 67.7565 79.477C70.1249 73.1607 71.3023 66.5244 72.9152 59.98C76.8259 58.8374 79.2445 55.8445 76.723 50.0812ZM53.3394 33.5147C53.4578 33.7636 53.904 33.7583 53.9895 33.4378C54.6865 30.8167 56.8987 29.5334 59.3208 31.0651C59.5151 31.1883 59.7814 31.1912 59.9757 31.0651C62.9753 29.1177 66.8691 29.1999 67.0223 33.9134C67.0373 34.374 67.3742 34.7486 67.8203 34.753C70.1331 34.7762 70.4695 36.3659 70.2573 38.4974C70.222 38.8517 70.5347 39.2814 70.8678 39.3408C75.8945 40.237 74.6248 44.124 72.2274 47.1439C72.1578 47.2319 72.1133 47.3256 72.0839 47.4204C71.0219 47.2328 69.9383 47.1052 68.8344 47.0501C70.5966 45.6006 71.7571 43.1665 70.7827 40.8508C69.7682 38.4413 67.5666 38.1069 65.5597 39.0136C65.0735 37.5602 64.3949 36.2098 62.9047 35.6829C61.5717 35.2112 60.3145 36.4002 59.3928 37.5549C58.7944 35.7221 57.5865 33.7191 55.5555 34.7704C54.482 35.3262 53.7498 36.2571 53.2921 37.3379C53.3157 36.0638 53.3302 34.7892 53.3394 33.5147ZM53.2002 41.6701C53.323 41.6246 53.4284 41.5183 53.4322 41.3627C53.4762 39.7053 53.8779 38.1306 54.876 36.8241C56.791 34.316 58.1361 37.3147 58.4662 39.2558C58.5484 39.7415 59.2724 39.961 59.5706 39.5622C60.2072 38.7115 60.778 37.9947 61.648 37.3828C63.375 36.1682 64.1271 39.6473 64.3253 40.4404C64.4582 40.9731 65.0546 41.2065 65.4998 40.9431C67.0996 39.9953 68.8141 39.8348 69.3926 41.9862C69.9151 43.9282 68.2012 45.4527 66.873 46.3681C66.6202 46.5421 66.5167 46.777 66.5032 47.012C61.9332 47.084 57.2274 47.9201 53.1103 48.3629C53.076 48.3663 53.0504 48.3803 53.0195 48.39C53.0789 46.1497 53.1422 43.9094 53.2002 41.6701ZM47.0516 31.2782C53.7715 28.5474 51.6323 37.9667 51.494 41.6328C51.3253 46.1062 51.2098 50.5809 51.1876 55.0571C50.3823 54.8053 50.2417 54.8285 48.7516 54.729C48.4393 54.7087 48.2165 54.8392 48.07 55.0349C48.042 51.3306 47.8709 47.6408 47.6297 43.9403C47.5244 42.3245 45.3933 31.952 47.0516 31.2782ZM33.6641 36.5249C31.0637 36.9662 29.0008 36.0309 27.5329 33.8931C28.5701 33.7394 29.619 33.5712 30.6166 33.9395C31.0125 34.0855 31.5113 33.6084 31.3426 33.1758C30.6118 31.3034 28.7645 24.7779 32.4441 24.6607C36.2383 24.5397 36.0962 31.5504 36.1542 33.9139C36.1576 34.0637 36.2161 34.1855 36.2963 34.2861C35.7458 34.52 35.1977 34.853 34.6578 35.3238C34.2615 35.6699 33.9362 36.0793 33.6641 36.5249ZM35.6076 36.6598C36.8754 35.3132 38.7822 35.3108 40.338 36.0503C42.9867 37.3084 44.3532 40.0634 45.7727 42.5546C45.9453 44.5382 46.1193 46.5209 46.3102 48.5021C43.8901 48.5891 41.399 48.6113 38.9035 48.6964C38.8866 48.6007 38.8479 48.5084 38.7599 48.4339C35.7429 45.8848 32.0608 40.4274 35.6076 36.6598ZM65.942 78.0869C65.7613 78.0182 65.5597 77.9868 65.3364 78.0192C55.6208 79.431 46.1671 79.7931 36.5351 77.6514C36.5641 77.5165 36.5685 77.374 36.5076 77.2193C35.0218 73.426 34.5065 69.2437 33.1 65.3871C32.5645 63.9178 31.9516 62.3459 31.025 61.1008C30.4953 60.3889 30.0574 60.0568 29.5939 59.7784C41.9577 60.6136 54.2795 59.2946 66.6298 60.4498C68.4158 60.6165 70.2244 60.5629 71.8518 60.24C69.4951 66.0454 67.7338 72.0669 65.942 78.0869ZM70.0388 58.4918C66.6004 58.6276 63.1338 57.934 59.7176 57.6198C53.7957 57.0756 47.6152 58.0553 41.6696 58.1679C38.192 58.2346 34.7124 58.1728 31.2377 58.0273C30.5093 57.9968 26.6987 58.2825 26.3961 57.15C25.7702 54.8039 26.4638 52.7255 27.964 51.1208C27.993 51.1232 28.0177 51.1348 28.0496 51.1319C34.072 50.6365 40.6077 51.9478 46.4876 50.3238C46.7138 52.5365 46.9637 54.7464 47.258 56.9504C47.3252 57.4545 48.0778 57.3148 48.0812 56.8329C48.0826 56.6551 48.0778 56.4777 48.0778 56.2998C48.2242 56.499 48.4456 56.6386 48.7516 56.6454C49.7661 56.8035 50.7806 56.962 51.7951 57.12C52.3302 57.2747 52.8638 56.8392 52.8682 56.2602C52.887 53.916 52.9373 51.5723 52.9967 49.229C53.033 49.2411 53.0668 49.2566 53.1103 49.2604C60.4382 49.9134 67.9257 49.8936 75.2787 50.1648C75.1859 50.3422 75.1386 50.5485 75.1758 50.7665C76.0414 55.8455 75.213 58.2868 70.0388 58.4918Z" fill="white"/>
<path d="M37.5563 40.0324C36.8404 41.2969 35.9134 42.6971 35.8907 44.2274C35.8839 44.6807 36.5181 44.6677 36.5514 44.2274C36.6544 42.8711 37.6505 41.6231 38.1546 40.4003C38.3277 39.9802 37.7907 39.6182 37.5563 40.0324Z" fill="white"/>
<path d="M40.3522 42.0983C38.7697 43.1326 37.384 44.4149 37.3966 46.5189C37.4004 47.1473 38.2777 47.1352 38.3154 46.5189C38.414 44.9123 39.6552 43.8088 40.808 42.918C41.2657 42.5647 40.8568 41.7687 40.3522 42.0983Z" fill="white"/>
<path d="M42.5251 45.1278C41.7382 45.8011 40.7508 46.2792 39.8561 46.7702C39.4472 46.995 39.8063 47.62 40.2138 47.414C41.1896 46.923 42.2501 46.4764 42.9925 45.6189C43.2844 45.2825 42.8513 44.849 42.5251 45.1278Z" fill="white"/>
<path d="M40.976 69.936H38.752L38.384 71H37.208L39.216 65.408H40.52L42.528 71H41.344L40.976 69.936ZM40.672 69.04L39.864 66.704L39.056 69.04H40.672ZM48.7826 66.504C49.3266 66.504 49.7639 66.672 50.0946 67.008C50.4306 67.3386 50.5986 67.8026 50.5986 68.4V71H49.4786V68.552C49.4786 68.2053 49.3906 67.9413 49.2146 67.76C49.0386 67.5733 48.7986 67.48 48.4946 67.48C48.1906 67.48 47.9479 67.5733 47.7666 67.76C47.5906 67.9413 47.5026 68.2053 47.5026 68.552V71H46.3826V68.552C46.3826 68.2053 46.2946 67.9413 46.1186 67.76C45.9426 67.5733 45.7026 67.48 45.3986 67.48C45.0892 67.48 44.8439 67.5733 44.6626 67.76C44.4866 67.9413 44.3986 68.2053 44.3986 68.552V71H43.2786V66.568H44.3986V67.104C44.5426 66.9173 44.7266 66.7706 44.9506 66.664C45.1799 66.5573 45.4306 66.504 45.7026 66.504C46.0492 66.504 46.3586 66.5786 46.6306 66.728C46.9026 66.872 47.1132 67.08 47.2626 67.352C47.4066 67.096 47.6146 66.8906 47.8866 66.736C48.1639 66.5813 48.4626 66.504 48.7826 66.504ZM51.3734 68.768C51.3734 68.32 51.4614 67.9226 51.6374 67.576C51.8187 67.2293 52.0614 66.9626 52.3654 66.776C52.6747 66.5893 53.0187 66.496 53.3974 66.496C53.728 66.496 54.016 66.5626 54.2614 66.696C54.512 66.8293 54.712 66.9973 54.8614 67.2V66.568H55.9894V71H54.8614V70.352C54.7174 70.56 54.5174 70.7333 54.2614 70.872C54.0107 71.0053 53.72 71.072 53.3894 71.072C53.016 71.072 52.6747 70.976 52.3654 70.784C52.0614 70.592 51.8187 70.3226 51.6374 69.976C51.4614 69.624 51.3734 69.2213 51.3734 68.768ZM54.8614 68.784C54.8614 68.512 54.808 68.28 54.7014 68.088C54.5947 67.8906 54.4507 67.7413 54.2694 67.64C54.088 67.5333 53.8934 67.48 53.6854 67.48C53.4774 67.48 53.2854 67.5306 53.1094 67.632C52.9334 67.7333 52.7894 67.8826 52.6774 68.08C52.5707 68.272 52.5174 68.5013 52.5174 68.768C52.5174 69.0346 52.5707 69.2693 52.6774 69.472C52.7894 69.6693 52.9334 69.8213 53.1094 69.928C53.2907 70.0346 53.4827 70.088 53.6854 70.088C53.8934 70.088 54.088 70.0373 54.2694 69.936C54.4507 69.8293 54.5947 69.68 54.7014 69.488C54.808 69.2906 54.8614 69.056 54.8614 68.784ZM58.1073 70.08H60.0833V71H56.8353V70.096L58.7713 67.488H56.8433V66.568H60.0593V67.472L58.1073 70.08ZM65.0704 68.688C65.0704 68.848 65.0598 68.992 65.0384 69.12H61.7984C61.8251 69.44 61.9371 69.6906 62.1344 69.872C62.3318 70.0533 62.5744 70.144 62.8624 70.144C63.2784 70.144 63.5744 69.9653 63.7504 69.608H64.9584C64.8304 70.0346 64.5851 70.3866 64.2224 70.664C63.8598 70.936 63.4144 71.072 62.8864 71.072C62.4598 71.072 62.0758 70.9786 61.7344 70.792C61.3984 70.6 61.1344 70.3306 60.9424 69.984C60.7558 69.6373 60.6624 69.2373 60.6624 68.784C60.6624 68.3253 60.7558 67.9226 60.9424 67.576C61.1291 67.2293 61.3904 66.9626 61.7264 66.776C62.0624 66.5893 62.4491 66.496 62.8864 66.496C63.3078 66.496 63.6838 66.5866 64.0144 66.768C64.3504 66.9493 64.6091 67.208 64.7904 67.544C64.9771 67.8746 65.0704 68.256 65.0704 68.688ZM63.9104 68.368C63.9051 68.08 63.8011 67.8506 63.5984 67.68C63.3958 67.504 63.1478 67.416 62.8544 67.416C62.5771 67.416 62.3424 67.5013 62.1504 67.672C61.9638 67.8373 61.8491 68.0693 61.8064 68.368H63.9104Z" fill="white"/>
<path d="M47.5484 4.1543C43.9234 6.32933 45.8567 9.5723 45.8567 9.5723C49.5379 9.5723 48.4039 9.15968 49.5379 9.5723C87.6657 15.1307 106.09 46.9691 94.1657 69.4575C83.6134 98.4487 44.994 109.44 13.9333 93.1566C12.7996 92.7439 10.7273 95.5941 10.2858 96.8073C9.84409 98.021 11.1997 97.1398 12.3333 97.5521C49.0192 110.905 87.2099 98.8422 97.4678 70.6591C107.725 42.4784 85.974 13.3378 47.5484 4.1543Z" fill="black"/>
<path d="M25.886 94.7706C26.567 95.0181 27.4312 94.3516 27.8194 93.2858C28.208 92.2181 27.9735 91.1543 27.2925 90.9063C3.0803 88.014 -4.41148 42.58 8.39719 26.8713C23.8801 7.8829 40.0566 0.0423944 54.3132 3.42945C55.0179 3.59698 65.5252 7.3956 65.9134 6.3295C65.9134 6.3295 65.4605 2.56302 59.8726 0.529215C38.3649 -2.12916 23.3813 5.1211 6.9477 24.6962C-8.27729 44.9967 3.0803 88.9807 25.886 94.7706Z" fill="#F56C00"/>
<path d="M46.8232 12.6128C24.1318 12.6128 5.73926 30.5728 5.73926 52.7301C5.73926 74.8874 24.1318 92.8473 46.8232 92.8473C69.5146 92.8473 87.9072 74.8849 87.9072 52.7301C87.9072 30.5752 69.5146 12.6128 46.8232 12.6128ZM46.7821 91.2958C26.3223 92.8473 5.73926 71.7911 7.20653 52.7301C5.73926 32.5607 26.5316 12.6128 46.7821 14.1643C67.4063 12.6128 87.9072 32.3389 86.4397 52.7301C87.9072 72.0129 67.4063 92.8473 46.7821 91.2958Z" fill="black"/>
</svg>
